<svg width="8" height="8" viewBox="0 0 8 8" fill="none" xmlns="http://www.w3.org/2000/svg">
<path d="M4.02905 7.99984C2.91772 7.99984 1.97322 7.61101 1.19555 6.83334C0.417886 6.05534 0.0290527 5.11084 0.0290527 3.99984C0.0290527 2.98717 0.359053 2.10884 1.01905 1.36484C1.67972 0.621506 2.49705 0.182673 3.47105 0.0483398C3.49805 0.0483398 3.52455 0.0493399 3.55055 0.0513399C3.57655 0.0533399 3.60205 0.0561731 3.62705 0.0598397C3.45839 0.295173 3.32489 0.55684 3.22655 0.84484C3.12822 1.13317 3.07905 1.43501 3.07905 1.75034C3.07905 2.63934 3.39005 3.39484 4.01205 4.01684C4.63439 4.63917 5.39005 4.95034 6.27905 4.95034C6.59639 4.95034 6.89855 4.90117 7.18555 4.80284C7.47289 4.70451 7.73089 4.57101 7.95955 4.40234C7.96355 4.42734 7.96655 4.45284 7.96855 4.47884C7.97022 4.50484 7.97105 4.53117 7.97105 4.55784C7.84305 5.53217 7.40722 6.34951 6.66355 7.00984C5.91989 7.67017 5.04205 8.00017 4.02905 7.99984Z" fill="black"/>
</svg>
